<svg width="20" height="20" viewBox="0 0 20 20" fill="none" xmlns="http://www.w3.org/2000/svg">
<g clip-path="url(#clip0_6099_24716)">
<path fill-rule="evenodd" clip-rule="evenodd" d="M1.66797 10.0003C1.66797 5.39795 5.39893 1.66699 10.0013 1.66699C14.6037 1.66699 18.3346 5.39795 18.3346 10.0003C18.3346 14.6027 14.6037 18.3337 10.0013 18.3337C5.39893 18.3337 1.66797 14.6027 1.66797 10.0003ZM10.0007 6.66683C10.0007 6.20659 9.62755 5.8335 9.16732 5.8335C8.70708 5.8335 8.33398 6.20659 8.33398 6.66683V10.8335C8.33398 11.2937 8.70708 11.6668 9.16732 11.6668H13.334C13.7942 11.6668 14.1673 11.2937 14.1673 10.8335C14.1673 10.3733 13.7942 10.0002 13.334 10.0002H10.0007V6.66683Z" fill="#45494E"/>
</g>
<defs>
<clipPath id="clip0_6099_24716">
<rect width="20" height="20" rx="10" fill="white"/>
</clipPath>
</defs>
</svg>
