<svg width="20" height="20" viewBox="0 0 20 20" fill="none" xmlns="http://www.w3.org/2000/svg">
<path d="M11.1577 2.73781C11.2141 2.6849 11.2821 2.64581 11.3562 2.6236C11.4303 2.60138 11.5085 2.59667 11.5847 2.60981C15.0927 3.21781 17.9947 6.27681 17.9947 9.99981C17.9947 10.9847 17.8007 11.96 17.4238 12.8699C17.0469 13.7799 16.4945 14.6067 15.798 15.3031C15.1016 15.9996 14.2748 16.552 13.3648 16.9289C12.4549 17.3058 11.4796 17.4998 10.4947 17.4998C7.96472 17.4998 5.45472 16.2428 4.08972 14.2858C4.03949 14.2137 4.00918 14.1295 4.00184 14.0419C3.99451 13.9543 4.0104 13.8663 4.04793 13.7868C4.08545 13.7073 4.14328 13.6391 4.21558 13.589C4.28787 13.539 4.37208 13.5089 4.45972 13.5018C5.97472 13.3798 7.79972 12.5698 9.14972 10.9108C10.4917 9.26081 11.3917 6.74081 11.0027 3.15681C10.9943 3.07974 11.0039 3.00176 11.0308 2.92904C11.0577 2.85632 11.1012 2.79085 11.1577 2.73781ZM3.49972 9.99981C3.89754 9.99981 4.27907 9.84178 4.56038 9.56047C4.84168 9.27917 4.99972 8.89764 4.99972 8.49981V4.88981L7.99972 4.13981V6.08481C7.69955 5.97869 7.37339 5.97082 7.06845 6.06236C6.76352 6.1539 6.49561 6.34009 6.30352 6.59399C6.11142 6.84789 6.00509 7.15632 5.99992 7.47466C5.99475 7.793 6.091 8.10473 6.27475 8.36473C6.4585 8.62474 6.72021 8.81953 7.02201 8.92093C7.32382 9.02232 7.65005 9.02506 7.95352 8.92874C8.25698 8.83242 8.52192 8.64204 8.71 8.38515C8.89809 8.12826 8.99955 7.81819 8.99972 7.49981V3.49981C8.9997 3.42387 8.98238 3.34892 8.94907 3.28066C8.91576 3.21241 8.86734 3.15264 8.80748 3.10589C8.74762 3.05914 8.6779 3.02665 8.60361 3.01087C8.52932 2.99508 8.45241 2.99643 8.37872 3.01481L4.37872 4.01481C4.2705 4.0418 4.17442 4.1042 4.10574 4.19208C4.03707 4.27996 3.99975 4.38828 3.99972 4.49981V7.08481C3.79383 7.01239 3.57461 6.98576 3.35737 7.0068C3.14013 7.02784 2.9301 7.09603 2.74193 7.20662C2.55376 7.3172 2.39199 7.46752 2.26792 7.64708C2.14384 7.82664 2.06044 8.03111 2.02354 8.24623C1.98665 8.46135 1.99714 8.68192 2.05428 8.89257C2.11143 9.10321 2.21386 9.29884 2.35442 9.46582C2.49497 9.63279 2.67028 9.76708 2.86809 9.85931C3.0659 9.95154 3.28146 9.99949 3.49972 9.99981Z" fill="#45494E"/>
</svg>
