<svg width="24" height="24" viewBox="0 0 24 24" fill="none" xmlns="http://www.w3.org/2000/svg">
<g clip-path="url(#clip0_7146_32903)">
<path fill-rule="evenodd" clip-rule="evenodd" d="M8.99959 3.22263C8.99959 2.75606 9.32223 2.3515 9.7771 2.24769C11.2593 1.90944 12.7789 1.92079 14.2221 2.2501C14.677 2.35389 14.9997 2.75846 14.9997 3.22504L14.9997 5.07178C14.9997 5.84158 15.833 6.3227 16.4997 5.9378L18.1007 5.01345C18.5052 4.77993 19.0174 4.85747 19.3346 5.20022C19.8329 5.73857 20.2787 6.33981 20.6599 7.00004C21.0411 7.66024 21.3388 8.34696 21.5559 9.04761C21.6942 9.49371 21.5052 9.97608 21.1007 10.2096L19.4997 11.134C18.833 11.5189 18.833 12.4811 19.4997 12.866L21.099 13.7894C21.5031 14.0227 21.6921 14.5044 21.5546 14.9503C21.1181 16.3648 20.3682 17.6865 19.3342 18.801C19.0168 19.143 18.5051 19.2201 18.1011 18.9869L16.4997 18.0623C15.833 17.6774 14.9997 18.1585 14.9997 18.9283L14.9997 20.7775C14.9997 21.244 14.677 21.6486 14.2222 21.7524C12.74 22.0906 11.2204 22.0793 9.77714 21.75C9.32225 21.6462 8.99959 21.2416 8.99959 20.775L8.99959 18.9282C8.99959 18.1584 8.16626 17.6773 7.49959 18.0622L5.89854 18.9866C5.49408 19.2201 4.98185 19.1426 4.66462 18.7998C4.16639 18.2615 3.72056 17.6602 3.33939 17C2.95821 16.3398 2.66044 15.6531 2.44335 14.9524C2.30512 14.5063 2.49409 14.0239 2.89855 13.7904L4.49956 12.8661C5.16623 12.4812 5.16623 11.5189 4.49956 11.134L2.90026 10.2107C2.49619 9.97737 2.30715 9.49565 2.4447 9.04981C2.88114 7.63526 3.63109 6.31361 4.66513 5.1991C4.98246 4.85707 5.49415 4.77994 5.89821 5.01322L7.49959 5.93778C8.16626 6.32268 8.99959 5.84155 8.99959 5.07175L8.99959 3.22263ZM11.9998 14C13.1043 14 13.9998 13.1046 13.9998 12C13.9998 10.8954 13.1043 10 11.9998 10C10.8952 10 9.99976 10.8954 9.99976 12C9.99976 13.1046 10.8952 14 11.9998 14Z" fill="#BBBBBB"/>
</g>
<defs>
<clipPath id="clip0_7146_32903">
<rect width="24" height="24" fill="white"/>
</clipPath>
</defs>
</svg>
