<svg width="20" height="20" viewBox="0 0 20 20" fill="none" xmlns="http://www.w3.org/2000/svg">
    <path
        d="M16.4251 2.36398C17.0361 2.48619 17.5138 2.96382 17.636 3.57487C17.8133 4.46149 17.5762 5.38056 16.9922 6.0708L14.699 8.78094L16.3196 14.7232C16.418 15.0838 16.3155 15.4695 16.0512 15.7339L14.966 16.8191C14.5706 17.2145 13.9067 17.1215 13.6351 16.6327L11.1408 12.143L8.42583 14.0226V14.6782C8.42583 14.9545 8.31609 15.2194 8.12074 15.4148L6.71815 16.8173C6.27572 17.2598 5.52238 17.0819 5.32453 16.4884L4.8713 15.1287L3.51161 14.6754C2.91803 14.4776 2.74019 13.7242 3.18262 13.2818L4.5852 11.8792C4.78055 11.6839 5.04551 11.5741 5.32177 11.5741L5.97736 11.5741L7.85698 8.85912L3.36729 6.36485C2.87849 6.09329 2.78548 5.42936 3.18089 5.03395L4.26611 3.94874C4.53043 3.68442 4.91612 3.58199 5.27676 3.68035L11.219 5.30096L13.9292 3.00776C14.6194 2.42372 15.5385 2.18666 16.4251 2.36398Z"
        fill="#45494E" />
</svg>
