<svg width="14" height="18" viewBox="0 0 14 18" fill="none" xmlns="http://www.w3.org/2000/svg">
<path fill-rule="evenodd" clip-rule="evenodd" d="M3.04199 16.487L2.77406 16.851C2.67586 16.984 2.55241 17.0964 2.41077 17.1818C2.26912 17.2671 2.11206 17.3237 1.94854 17.3483C1.78502 17.373 1.61825 17.3652 1.45775 17.3254C1.29724 17.2855 1.14616 17.2145 1.01311 17.1163C0.880059 17.0181 0.767656 16.8947 0.682316 16.753C0.596976 16.6114 0.540371 16.4543 0.515732 16.2908C0.491093 16.1273 0.498903 15.9605 0.538715 15.8C0.578528 15.6395 0.649564 15.4884 0.747768 15.3553L1.01664 14.9921C1.16623 14.7895 1.26833 14.5559 1.31538 14.3086C1.36243 14.0612 1.35322 13.8064 1.28843 13.5631L1.11506 12.9159C1.01795 12.551 1.00418 12.1689 1.07476 11.7979C1.14535 11.427 1.29848 11.0766 1.52281 10.7729L7.78185 2.29399C8.04121 1.93317 8.36963 1.62745 8.74806 1.39454C9.1265 1.16163 9.54741 1.00618 9.98639 0.937203C10.4254 0.868227 10.8737 0.887098 11.3053 0.992722C11.7369 1.09835 12.1433 1.28862 12.5008 1.55251C12.8583 1.8164 13.1599 2.14865 13.388 2.52998C13.6161 2.91132 13.7663 3.33416 13.8297 3.77397C13.8931 4.21378 13.8686 4.66181 13.7576 5.09208C13.6465 5.52234 13.4511 5.92627 13.1828 6.28043L12.5579 7.128L11.3244 6.2183C11.2587 6.1661 11.1831 6.12768 11.1022 6.10532C11.0213 6.08297 10.9368 6.07714 10.8536 6.08817C10.7704 6.09921 10.6902 6.1269 10.618 6.16958C10.5457 6.21226 10.4828 6.26906 10.4329 6.33658C10.3831 6.40411 10.3473 6.48099 10.3278 6.56263C10.3084 6.64427 10.3055 6.72899 10.3195 6.81176C10.3334 6.89452 10.3639 6.97362 10.4091 7.04434C10.4543 7.11506 10.5133 7.17595 10.5826 7.22338L11.8152 8.13321L10.3183 10.1622L9.08568 9.2524C8.9522 9.15732 8.78672 9.11847 8.62488 9.14422C8.46303 9.16997 8.31778 9.25825 8.22039 9.39006C8.12301 9.52186 8.08129 9.68665 8.10422 9.84891C8.12716 10.0112 8.2129 10.1579 8.343 10.2576L9.57565 11.1674L8.07246 13.205L6.83981 12.2952C6.77393 12.2447 6.69866 12.2078 6.61838 12.1868C6.53811 12.1657 6.45445 12.1608 6.37228 12.1725C6.2901 12.1841 6.21106 12.2119 6.13977 12.2544C6.06848 12.2969 6.00637 12.3532 5.95705 12.4199C5.90774 12.4867 5.87221 12.5626 5.85254 12.6432C5.83287 12.7238 5.82946 12.8075 5.8425 12.8895C5.85554 12.9715 5.88477 13.05 5.92849 13.1206C5.9722 13.1911 6.02953 13.2522 6.09713 13.3004L7.32978 14.2102L6.92386 14.7601C6.69971 15.0638 6.41014 15.3132 6.07657 15.4898C5.74301 15.6664 5.37399 15.7657 4.99685 15.7803L4.32658 15.8063C4.07512 15.8162 3.82912 15.8825 3.60676 16.0003C3.3844 16.1182 3.19138 16.2845 3.04199 16.487ZM9.95465 6.05389C10.0462 5.92028 10.0822 5.75637 10.0553 5.59669C10.0283 5.437 9.94046 5.29401 9.81017 5.19784C9.67988 5.10167 9.51734 5.05983 9.3568 5.08113C9.19627 5.10243 9.05027 5.18521 8.94956 5.31203L4.40042 11.4753C4.34823 11.541 4.30981 11.6166 4.28745 11.6975C4.2651 11.7784 4.25926 11.863 4.2703 11.9462C4.28134 12.0294 4.30903 12.1095 4.35171 12.1818C4.39439 12.254 4.45118 12.317 4.51871 12.3668C4.58624 12.4167 4.66312 12.4524 4.74476 12.4719C4.8264 12.4914 4.91112 12.4942 4.99389 12.4803C5.07665 12.4663 5.15575 12.4358 5.22647 12.3906C5.29719 12.3454 5.35808 12.2864 5.40551 12.2172L9.95465 6.05389Z" fill="#45494E"/>
</svg>
